<?xml version="1.0" encoding="UTF-8"?>
<!DOCTYPE svg PUBLIC "-//W3C//DTD SVG 1.1//EN" "http://www.w3.org/Graphics/SVG/1.1/DTD/svg11.dtd">
<!-- Creator: CorelDRAW X6 -->
<svg xmlns="http://www.w3.org/2000/svg" xml:space="preserve" width="4.13386in" height="5.82677in" version="1.1" style="shape-rendering:geometricPrecision; text-rendering:geometricPrecision; image-rendering:optimizeQuality; fill-rule:evenodd; clip-rule:evenodd"
viewBox="0 0 4134 5827"
 xmlns:xlink="http://www.w3.org/1999/xlink">
 <defs>
  <style type="text/css">
   <![CDATA[
    .fil0 {fill:none}
    .fil1 {fill:#313E6F}
   ]]>
  </style>
 </defs>
 <g id="Layer_x0020_1">
  <metadata id="CorelCorpID_0Corel-Layer"/>
  <g id="_319074896">
   <rect class="fil0" width="4134" height="5827"/>
   <path class="fil1" d="M1759 1512l-204 281c-102,141 -71,391 69,492l379 273c65,47 70,93 39,143l55 41 192 -266c118,-164 108,-387 -68,-515l-382 -278c-46,-33 -50,-80 -25,-132l-55 -39zm328 -1243l-318 440c-149,206 -95,558 109,708l523 384c106,78 120,276 43,377l44 33 361 -507c162,-228 152,-564 -102,-749l-559 -406c-78,-57 -117,-153 -52,-246l-48 -34zm-838 2758l421 0 75 255c230,0 459,0 689,0l75 -255 421 0 -55 -188c-524,0 -1047,0 -1571,0l-55 188zm-610 -2972l2856 0c185,0 336,151 336,336l0 5047c0,185 -151,336 -336,336l-2856 0c-185,0 -336,-151 -336,-336l0 -5047c0,-185 151,-336 336,-336zm0 23l2856 0c172,0 313,141 313,313l0 5047c0,172 -141,313 -313,313l-2856 0c-172,0 -313,-141 -313,-313l0 -5047c0,-172 141,-313 313,-313zm3100 4575l0 786c0,134 -110,244 -244,244l-2856 0c-134,0 -244,-110 -244,-244l0 -786 3344 0zm-2781 434l-125 -313 -64 0 -126 313 71 0 26 -70 121 0 26 70 72 0zm-121 -129l-75 0 21 -57c3,-9 7,-18 10,-27 3,-9 5,-16 7,-22 2,6 4,13 7,22 3,9 6,18 10,27l21 57zm399 -133c-19,-22 -50,-43 -79,-51 -13,-3 -27,-5 -42,-5 -22,0 -41,4 -59,12 -18,8 -33,19 -46,33 -13,14 -23,31 -30,51 -7,20 -11,42 -11,65 0,25 3,47 10,67 7,20 17,37 29,51 13,14 28,25 45,32 18,8 37,11 59,11 40,0 109,-22 129,-61l-47 -42c-13,21 -55,40 -80,40 -12,0 -23,-3 -33,-8 -10,-5 -18,-12 -25,-21 -7,-9 -12,-19 -15,-31 -3,-12 -5,-25 -5,-39 0,-15 2,-28 5,-40 3,-12 8,-22 15,-31 7,-9 15,-16 24,-21 10,-5 21,-7 33,-7 25,0 60,16 76,38l46 -44zm625 262l-73 -119c21,-8 44,-22 55,-37 11,-15 16,-34 16,-58 0,-17 -3,-31 -9,-44 -6,-12 -14,-23 -24,-31 -10,-8 -22,-15 -36,-19 -14,-4 -28,-6 -44,-6l-153 0 0 313 66 0 0 -113 59 3 69 110 76 0zm-70 -212c0,27 -16,41 -47,41l-86 0 0 -80 86 0c15,0 26,3 35,9 8,6 12,16 12,31zm347 212l0 -61 -170 0 0 -75 137 0 0 -61 -137 0 0 -54 163 0 0 -61 -229 0 0 313 236 0zm316 -156c0,-29 -4,-53 -12,-73 -8,-20 -20,-36 -34,-48 -15,-13 -32,-22 -52,-27 -20,-6 -42,-8 -65,-8l-103 0 0 313 98 0c21,0 42,-3 62,-9 20,-6 38,-15 54,-28 16,-13 29,-29 38,-49 10,-20 14,-43 14,-71zm-68 0c0,14 -2,27 -6,39 -4,12 -10,22 -18,30 -8,8 -19,15 -31,19 -13,5 -28,7 -45,7l-32 0 0 -191 35 0c35,0 60,8 75,24 15,16 23,40 23,72zm197 156l0 -313 -66 0 0 313 66 0zm307 -251l0 -62 -255 0 0 62 95 0 0 251 66 0 0 -251 95 0zm594 95c0,-29 -4,-53 -12,-73 -8,-20 -20,-36 -34,-48 -15,-13 -32,-22 -52,-27 -20,-6 -42,-8 -65,-8l-103 0 0 313 98 0c21,0 42,-3 62,-9 20,-6 38,-15 54,-28 16,-13 29,-29 38,-49 10,-20 14,-43 14,-71zm-68 0c0,14 -2,27 -6,39 -4,12 -10,22 -18,30 -8,8 -19,15 -31,19 -13,5 -28,7 -45,7l-32 0 0 -191 35 0c35,0 60,8 75,24 15,16 23,40 23,72zm-249 156l0 -61 -170 0 0 -75 137 0 0 -61 -137 0 0 -54 163 0 0 -61 -229 0 0 313 236 0zm-551 404l0 -61 -170 0 0 -75 137 0 0 -61 -137 0 0 -54 163 0 0 -61 -229 0 0 313 236 0zm-1078 -665c-19,-22 -50,-43 -79,-51 -13,-3 -27,-5 -42,-5 -22,0 -41,4 -59,12 -18,8 -33,19 -46,33 -13,14 -23,31 -30,51 -7,20 -11,42 -11,65 0,25 3,47 10,67 7,20 17,37 29,51 13,14 28,25 45,32 18,8 37,11 59,11 40,0 109,-22 129,-61l-47 -42c-13,21 -55,40 -80,40 -12,0 -23,-3 -33,-8 -10,-5 -18,-12 -25,-21 -7,-9 -12,-19 -15,-31 -3,-12 -5,-25 -5,-39 0,-15 2,-28 5,-40 3,-12 8,-22 15,-31 7,-9 15,-16 24,-21 10,-5 21,-7 33,-7 25,0 60,16 76,38l46 -44zm-269 564c0,-17 -4,-32 -13,-43 -9,-11 -19,-20 -32,-25 11,-6 19,-15 25,-25 6,-10 9,-22 9,-36 0,-27 -9,-47 -28,-61 -18,-14 -43,-21 -74,-21l-147 0 0 313 146 0c17,0 33,-2 47,-6 14,-4 26,-11 36,-19 10,-8 18,-19 23,-32 6,-13 8,-27 8,-44zm-76 -124c0,9 -3,16 -8,21 -5,6 -15,8 -28,8l-85 0 0 -59 82 0c14,0 24,3 30,8 6,5 9,13 9,22zm10 125c0,13 -4,22 -11,30 -7,7 -19,11 -35,11l-85 0 0 -81 85 0c31,0 46,13 46,40zm369 -38l0 -175 -64 0 0 176c0,25 -6,45 -18,59 -12,14 -28,21 -48,21 -20,0 -37,-7 -48,-22 -12,-15 -17,-35 -17,-60l0 -175 -64 0 0 176c0,23 3,43 9,61 6,18 15,32 26,44 11,12 25,21 41,27 16,6 34,9 53,9 41,0 73,-12 96,-37 23,-25 34,-60 34,-106zm295 43c0,-17 -3,-31 -10,-42 -6,-11 -15,-20 -25,-27 -10,-7 -22,-13 -34,-17 -13,-4 -25,-8 -38,-10 -13,-3 -23,-6 -32,-8 -8,-2 -15,-5 -20,-8 -5,-3 -8,-6 -10,-9 -2,-3 -3,-8 -3,-13 0,-4 1,-7 2,-10 2,-3 4,-6 8,-9 4,-3 8,-5 14,-6 6,-2 13,-2 22,-2 15,0 28,3 40,8 12,6 23,13 33,24l46 -44c-15,-15 -32,-28 -51,-36 -19,-9 -41,-13 -66,-13 -16,0 -31,2 -45,6 -14,4 -26,10 -36,18 -10,8 -19,17 -25,29 -6,11 -9,24 -9,38 0,15 2,28 7,39 5,10 12,19 21,26 9,7 19,13 32,17 12,4 26,8 41,12 15,3 27,6 37,9 9,3 17,6 22,9 5,3 8,7 10,10 2,4 3,8 3,13 0,12 -5,21 -14,26 -9,5 -23,8 -42,8 -16,0 -30,-3 -44,-8 -14,-6 -27,-15 -38,-27l-46 40c12,18 29,31 51,42 22,10 46,15 73,15 22,0 41,-2 57,-7 16,-5 29,-12 39,-20 10,-9 18,-19 23,-31 5,-12 7,-26 7,-41zm116 95l0 -313 -64 0 0 313 64 0zm327 0l0 -313 -63 0 0 132c0,4 0,10 0,17 0,7 0,13 0,20 0,7 0,13 0,19 0,6 0,10 0,13 -2,-4 -5,-10 -10,-16 -4,-7 -9,-13 -13,-19l-114 -165 -61 0 0 313 63 0 0 -138c0,-4 0,-10 0,-17 0,-7 0,-13 0,-20 0,-7 0,-13 0,-19 0,-6 0,-10 0,-13 2,4 5,10 10,16 4,7 9,13 13,19l118 171 57 0zm568 -95c0,-17 -3,-31 -10,-42 -6,-11 -15,-20 -25,-27 -10,-7 -22,-13 -34,-17 -13,-4 -25,-8 -38,-10 -13,-3 -23,-6 -32,-8 -8,-2 -15,-5 -20,-8 -5,-3 -8,-6 -10,-9 -2,-3 -3,-8 -3,-13 0,-4 1,-7 2,-10 2,-3 4,-6 8,-9 4,-3 8,-5 14,-6 6,-2 13,-2 22,-2 15,0 28,3 40,8 12,6 23,13 33,24l46 -44c-15,-15 -32,-28 -51,-36 -19,-9 -41,-13 -66,-13 -16,0 -31,2 -45,6 -14,4 -26,10 -36,18 -10,8 -19,17 -25,29 -6,11 -9,24 -9,38 0,15 2,28 7,39 5,10 12,19 21,26 9,7 19,13 32,17 12,4 26,8 41,12 15,3 27,6 37,9 9,3 17,6 22,9 5,3 8,7 10,10 2,4 3,8 3,13 0,12 -5,21 -14,26 -9,5 -23,8 -42,8 -16,0 -30,-3 -44,-8 -14,-6 -27,-15 -38,-27l-46 40c12,18 29,31 51,42 22,10 46,15 73,15 22,0 41,-2 57,-7 16,-5 29,-12 39,-20 10,-9 18,-19 23,-31 5,-12 7,-26 7,-41zm276 0c0,-17 -3,-31 -10,-42 -6,-11 -15,-20 -25,-27 -10,-7 -22,-13 -34,-17 -13,-4 -25,-8 -38,-10 -13,-3 -23,-6 -32,-8 -8,-2 -15,-5 -20,-8 -5,-3 -8,-6 -10,-9 -2,-3 -3,-8 -3,-13 0,-4 1,-7 2,-10 2,-3 4,-6 8,-9 4,-3 8,-5 14,-6 6,-2 13,-2 22,-2 15,0 28,3 40,8 12,6 23,13 33,24l46 -44c-15,-15 -32,-28 -51,-36 -19,-9 -41,-13 -66,-13 -16,0 -31,2 -45,6 -14,4 -26,10 -36,18 -10,8 -19,17 -25,29 -6,11 -9,24 -9,38 0,15 2,28 7,39 5,10 12,19 21,26 9,7 19,13 32,17 12,4 26,8 41,12 15,3 27,6 37,9 9,3 17,6 22,9 5,3 8,7 10,10 2,4 3,8 3,13 0,12 -5,21 -14,26 -9,5 -23,8 -42,8 -16,0 -30,-3 -44,-8 -14,-6 -27,-15 -38,-27l-46 40c12,18 29,31 51,42 22,10 46,15 73,15 22,0 41,-2 57,-7 16,-5 29,-12 39,-20 10,-9 18,-19 23,-31 5,-12 7,-26 7,-41zm-1875 -1202l-252 0 0 -211 252 0c186,0 174,211 0,211zm865 0l-252 0 0 -211 252 0c186,0 174,211 0,211zm865 0l-252 0 0 -211 252 0c186,0 174,211 0,211zm-1747 -377l-235 0 0 -198 226 0c141,0 147,198 9,198zm865 0l-235 0 0 -198 226 0c141,0 147,198 9,198zm865 0l-235 0 0 -198 226 0c141,0 147,198 9,198zm-1383 259c-18,-121 -67,-151 -165,-194 74,-43 120,-107 120,-194 0,-175 -143,-246 -299,-246l-436 0 0 926 432 0c184,0 380,-81 348,-293zm865 0c-18,-121 -67,-151 -165,-194 74,-43 120,-107 120,-194 0,-175 -143,-246 -299,-246l-436 0 0 926 432 0c184,0 380,-81 348,-293zm865 0c-18,-121 -67,-151 -165,-194 74,-43 120,-107 120,-194 0,-175 -143,-246 -299,-246l-436 0 0 926 432 0c184,0 380,-81 348,-293zm84 262c0,-4 -1,-7 -2,-10 -1,-3 -3,-6 -5,-8 -2,-2 -6,-5 -10,-7 -4,-2 -9,-4 -15,-6 -5,-2 -10,-4 -13,-5 -3,-2 -6,-3 -8,-5 -2,-2 -3,-3 -4,-5 -1,-2 -1,-4 -1,-6 0,-2 0,-4 1,-6 1,-2 2,-3 4,-5 2,-1 4,-3 7,-3 3,-1 6,-1 10,-1 5,0 10,1 14,2 4,2 8,4 12,7l8 -9c-5,-3 -9,-6 -14,-8 -5,-2 -11,-3 -18,-3 -5,0 -10,1 -14,2 -4,1 -8,3 -11,5 -3,2 -5,5 -7,8 -2,3 -2,7 -2,11 0,4 1,7 2,10 1,3 3,6 5,8 2,2 6,5 10,7 4,2 9,4 15,6 5,2 9,3 12,5 3,2 6,3 8,5 2,2 3,4 4,6 1,2 1,4 1,7 0,6 -2,10 -6,13 -4,3 -10,5 -17,5 -6,0 -11,-1 -15,-3 -5,-2 -9,-5 -13,-9l-8 9c4,4 10,8 16,10 6,3 13,4 20,4 6,0 11,-1 15,-2 4,-1 8,-4 11,-6 3,-3 5,-6 7,-9 2,-4 2,-7 2,-11zm111 27l0 -105 -13 0 -26 63c-1,1 -1,3 -2,5 -1,2 -2,4 -2,6 -1,2 -1,4 -2,5 -1,2 -1,3 -1,4 0,-1 -1,-2 -1,-4 -1,-2 -1,-3 -2,-5 -1,-2 -1,-4 -2,-6 -1,-2 -1,-4 -2,-5l-25 -63 -13 0 0 105 12 0 0 -71 0 -11c0,1 1,2 1,4 0,1 1,3 2,4 1,2 1,3 2,5 1,2 1,3 2,4l28 67 29 -67c1,-1 1,-3 2,-4 1,-2 1,-3 2,-5 1,-2 1,-3 2,-4 0,-1 1,-3 1,-4l0 11 0 71 12 0z"/>
  </g>
 </g>
</svg>
