<svg xmlns="http://www.w3.org/2000/svg" viewBox="0 0 171.39 181.3"><defs><style>.cls-1{fill:#422517;fill-rule:evenodd;}</style></defs><title>Asset 1</title><g id="Layer_2" data-name="Layer 2"><g id="Layer_1-2" data-name="Layer 1"><path class="cls-1" d="M49.95,110.63v-3.19H46.48L27.36,52.37a11.82,11.82,0,0,0,5.4-3.81c7.21-9.28,22.17-.76,28.68-.48,6,.28,11.09-1.66,15.31-2a30.39,30.39,0,0,0-.28,6.37c.28,4.3,1.8,8.45,3.67,16.21,2.7,11.64,2.08,73,2.08,89.85H75.79c-.9,0-1.66,1.32-1.66,2.91v6.51H56.46c-1.94,0-3.53,1.32-3.53,2.91v6.86c0,1.59,1.59,2.91,3.53,2.91h58.47c1.94,0,3.53-1.32,3.53-2.91v-6.86c0-1.59-1.59-2.91-3.53-2.91H97.33v-6.51c0-1.59-.76-2.91-1.73-2.91H89.23c-.07-16.83-.62-78.21,2.08-89.85,1.8-7.76,3.33-11.92,3.6-16.21a30.79,30.79,0,0,0-.21-6.37c4.23.35,9.35,2.29,15.24,2,6.58-.28,21.47-8.8,28.75.48a11.17,11.17,0,0,0,5.4,3.81L125,107.45h-3.53v3.19h49.95v-3.19h-3.46L148.73,52.23a5.18,5.18,0,0,0,4-4.16,4.89,4.89,0,0,0-2-4.92c-13.09-9.08-25.56-1.32-36.16-1.46-5.89-.14-13.92-3.53-23-4.71a28.27,28.27,0,0,1-1.8-5.47c-.35-1.87,3.39-7.13,3.12-11.29-.42-7.48-5.4-7.76-7.13-20.23C84,12.47,79,12.75,78.56,20.23c-.21,4.16,3.46,9.42,3.12,11.29A21.1,21.1,0,0,1,79.87,37c-9.07,1.18-17.11,4.57-23,4.71-10.6.14-23.07-7.62-36.09,1.46a5.06,5.06,0,0,0-2.08,4.92,5.27,5.27,0,0,0,3.95,4.16L3.46,107.45H0v3.19Zm26.88,55.91h9.42C83,165.78,79.6,164,78,160.65H76.83c-.28,0-.48.42-.48.9v4.09c0,.48.21.9.48.9ZM146.45,44.27a3.09,3.09,0,0,1,3.12,3,3.12,3.12,0,0,1-6.23,0,3.09,3.09,0,0,1,3.12-3ZM85.69,15c1.18,0,2.08,2.56,2.08,5.82s-.9,5.82-2.08,5.82-2.08-2.56-2.08-5.82,1-5.82,2.08-5.82Zm0,29.44c1.45,0,2.56,3.33,2.56,7.48s-1.11,7.41-2.56,7.41S83.2,56,83.2,52s1.11-7.48,2.49-7.48Zm0-2.35c1.38,0,2.63,1.18,3.67,3.12a16.56,16.56,0,0,1,1,2.43c-.21-.83-.49-1.66-.7-2.43-1-2.91-2.42-4.71-3.95-4.71s-2.91,1.8-3.88,4.71a24.77,24.77,0,0,0-.69,2.43,16.14,16.14,0,0,1,1-2.43c1-1.94,2.29-3.12,3.6-3.12Zm0-28.75c.9,0,1.73.83,2.43,2.15a6,6,0,0,1,.62,1.66l-.42-1.66c-.69-2-1.59-3.19-2.63-3.19s-1.94,1.18-2.56,3.19a15.45,15.45,0,0,0-.48,1.66q.31-.93.62-1.66c.69-1.32,1.52-2.15,2.42-2.15Zm23.9,29.17c8.31.69,12.89-.83,23.48-2.49a25.89,25.89,0,0,1,14.69,2.36,33.87,33.87,0,0,0-11.09-1.66c-8.8.48-18.7,3.81-27.08,1.8Zm-47.73,0c-8.38.69-13-.83-23.48-2.49A26.13,26.13,0,0,0,23.62,42.4a34.26,34.26,0,0,1,11.15-1.66c8.73.48,18.7,3.81,27.09,1.8ZM25,44.27a3.15,3.15,0,0,0-3.19,3,3.11,3.11,0,0,0,3.19,3,3,3,0,0,0,3.12-3,3.09,3.09,0,0,0-3.12-3ZM56.88,178.66H74.4c-6-1.11-12.33-3.74-15.38-8.59H56.88c-.56,0-1,.62-1,1.39v5.82c0,.76.42,1.38,1,1.38ZM81.05,59c2.7,12.12,3,24.66,3,35V158.5h1.39V94c0-4.16-.83-25.35-4.43-35.05Zm56.39,56H124.21a15.54,15.54,0,0,0,1.11,3.6c3.53,7.41,12.61,11.43,21.27,11.43-7.83-1.11-10.25-8-9.14-15Zm33.94-2.08c0,10.6-11.15,19.26-24.94,19.26s-25-8.66-25-19.26Zm-7.2-5.4H128.71l17.73-51.06ZM16,114.93H2.77a12.76,12.76,0,0,0,1.11,3.6C7.34,125.94,16.42,130,25.15,130c-7.83-1.11-10.25-8-9.14-15Zm33.94-2.08c0,10.6-11.15,19.26-24.94,19.26S0,123.45,0,112.85Zm-7.21-5.4H7.27L25,56.39Z"/><path class="cls-1" d="M137.79,175.61H33.67a.77.77,0,0,0-.76.76v4.16a.77.77,0,0,0,.76.76H137.79a.77.77,0,0,0,.76-.76v-4.16a.77.77,0,0,0-.76-.76Z"/></g></g></svg>